<?xml version="1.0" encoding="utf-8"?>
<!-- Generator: Adobe Illustrator 26.5.0, SVG Export Plug-In . SVG Version: 6.00 Build 0)  -->
<svg version="1.1" id="Layer_1" xmlns="http://www.w3.org/2000/svg" xmlns:xlink="http://www.w3.org/1999/xlink" x="0px" y="0px"
	 viewBox="0 0 2000 400" style="enable-background:new 0 0 2000 400;" xml:space="preserve">
<style type="text/css">
	.st0{fill:#FFFFFF;}
	.st1{fill:#D2DAD8;}
	.st2{fill:#B28B23;}
	.st3{fill:#A7A9AC;}
	.st4{fill:#FCE8E6;}
	.st5{fill:#D2D7E7;}
	.st6{fill:none;stroke:#231F20;stroke-width:1.8539;stroke-miterlimit:10;}
	.st7{fill:none;stroke:#231F20;stroke-width:5.5618;stroke-miterlimit:10;}
	.st8{fill:none;stroke:#231F20;stroke-width:7.4157;stroke-miterlimit:10;}
	.st9{fill:none;stroke:#231F20;stroke-width:9.2696;stroke-miterlimit:10;}
</style>
<g>
	<g>
		<path class="st0" d="M28.2,239.3c14.2,0,21.4,0,35.6,0c0,31.4,0.1,34.8-0.9,42c-1.3,10-12.9,56.2,21.2,56
			c12.2,0,47.1-15.3,53-57.8c4.3-30.9-9.7-37.2-26.7-54.6c-16.3-16.6-24.4-24.9-40.7-41.5c-28.4-29.2-33.8-48-34.3-74.6
			c-0.8-38.2,28.8-72.3,69.5-69.9c14.3,0.8,41.1,2.5,54.7,24.6c8.5,14,8.5,24.2,8.5,68.2c-13.1,0-19.6,0-32.6,0
			c-0.9-28.4-0.9-31.4-1.7-36.9c-0.8-5.5-4.7-24.2-30.9-24.2c-31.4,0-31.4,27.1-31.4,35.6c0,22.5,8.1,31.4,29.2,53.8
			c15.1,15.8,22.6,23.6,37.7,39.4c24.6,26.3,40.3,35.1,35.2,76.9c-6,49.4-41.2,106.4-97.7,106.1c-30.1-0.2-44.7-11.2-49-18.5
			c-14.5-21.1-0.2-67.2,1.3-91.6C29,258.1,28.2,252.5,28.2,239.3z"/>
		<path class="st0" d="M396.9,43.5c0,67.2,0,134.5,0,201.7c0,36.9-0.5,58.2-8.6,79c-16.4,43.5-53.9,49.8-70.9,51.1
			c-34.9,2.7-61.8-6.7-67.1-41.6c-2.9-20,1.3-41.1,1.3-86c0-68.1,0-136.2,0-204.3c15.1,0,22.6,0,37.7,0c0,72.8,0,145.5,0,218.3
			c0,25.9-6.3,71.9,31.5,70c33.9-1.7,37.6-33.9,38.2-51.6c0.5-15,0.2-16.3,0.2-38.3c0-66.1,0-132.2,0-198.3
			C374.3,43.5,381.8,43.5,396.9,43.5z"/>
		<path class="st0" d="M531.9,337.9c-15.2,2.9-22.7,5-37.3,8.1c-0.2-101-0.3-202-0.3-302.9c24.4,0,36.6,0,61-0.8
			c33.1-1,53.8-0.8,69.1,21.7c13.3,19.5,13.5,39.2,13.5,70.2c0,40.7-6.8,69.9-35.6,80.5c-14.4,5.5-22.9,5.5-71.2,5.5
			C531,259.4,531.5,298.6,531.9,337.9z M531.2,187.1c10,0,15,0,25,0c16.5,0,26-0.8,33.9-6.8c11-8.3,11-20.3,11-43.2
			c0-32.2-1.5-45.7-13.6-54c-9.3-6.4-17.8-6.1-56.4-5.8C531.2,113.9,531.2,150.5,531.2,187.1z"/>
		<path class="st0" d="M853.4,335.9c-44.4-3.7-88.8-7.4-133.4-9.3c-5.1-97.5-2.4-195.8-2.3-293.5c43.8-3.4,87.6-6.8,131.5-9.9
			c0,14.9,0,24.7-0.1,43.3c-37.6,1.3-56.5,2.1-94.1,3.6c-0.1,44.9-0.1,60.2-0.1,95.8c33.1,0,49.6,0,82.6,0c0,13.6,0,20.3,0,33.9
			c-33.1,0-49.6,0-82.6,0c0,43.7-0.1,66.5,1.1,101.7c38.8,1.3,58.1,2.3,96.9,4C853.2,317.7,853.2,323.7,853.4,335.9z"/>
		<path class="st0" d="M1090.6,342.7l-35.6,13.1c0,0-37.7-100.4-54.6-144c-12.4-0.1-18.6,0-30.9,0c0,43.6,0,87.2,0,130.7
			c-14.7-0.3-22-0.6-36.7-1.3c-0.4-107.5-0.3-214.9,0-322.4c26.1-0.9,39.2-1.3,65.3-1.1c62.4-4.1,79.3,54.7,79.1,107.5
			c-0.1,23.3-2.9,42.8-7.1,54c-8.5,25-25.5,27.3-33.1,29.1C1054.6,253.1,1072.7,297.9,1090.6,342.7z M969.4,182c42,0,47.9,0.3,56-5
			c14.4-9.4,14.4-32.7,14.4-47.7c0-18.5-0.4-43.2-14.8-56.5c-8.9-8.2-16.9-8.6-55.5-8.3C969.4,103.6,969.4,142.8,969.4,182z"/>
		<path class="st0" d="M1202.4,342.7c-15.1,0-22.6,0-37.7,0c-0.1-105.7,0-211.5,0.1-317.2c43.9,3.4,87.8,6.8,131.7,10.2
			c0,13.7,0,21.8,0,37.3c-37.6-1.4-56.4-2.3-94.1-3.8c-0.1,45.6,0,63.1,0.3,104.5c32.8,1.6,49.2,2.3,81.9,2.9
			c0.1,16.1,0.3,27.9,0.2,37.9c-32.7-0.8-49.1-1.9-82-4.2C1202.4,254.4,1202.4,298.5,1202.4,342.7z"/>
		<path class="st0" d="M1529,335.9l-33.6,19.9c-16.4-42-38.2-97.4-56.8-138.6c-12.3,1.8-18.5,2.5-30.8,3.8
			c-0.4,40.6-0.4,81.1-0.4,121.7h-36.9c0-100.8,0-201.5,0-302.3c26.1,1.4,39.1,2,65.2,2.6c47.6-0.1,82.7,30.1,79.2,80.8
			c-1.3,18.7-3.9,36.4-8.2,46.9c-8.6,23.3-24.7,32.4-32.1,36C1494.4,251.4,1510.3,290.9,1529,335.9z M1408,192.6
			c41.8-4.8,47.6-7.4,55.6-14.5c14.3-12.7,14.3-34.8,14.3-49.3c0-17.9-0.4-37-14.8-45.9c-8.9-5.5-17-5.4-55.5-6.1
			C1407.4,115.4,1407.7,154,1408,192.6z"/>
		<path class="st0" d="M1737.6,342.7c-44.9,0-89.8,0-134.7,0c-2.6-100.6-2.3-197.8,5.9-298.2c46.7,0.5,93.5,0.4,140.2-1
			c-2.7,11.6-4.1,19.3-6.8,33.8c-38.5,0.6-58.2,0.6-97.3,0.5c-4.3,36.9-5.3,49.1-8.7,76.1c32.3,0,48.4,0.6,80.8,1.9
			c-1.9,10.8-3.6,14.2-1.9,29.7c-32.2-1.8-48.2-2.5-80.2-2.6c5.6,43.3,5.7,82.4,3.9,125.9c38.7-0.1,58-0.1,96.7-0.2
			C1736.3,322.3,1737.3,329.2,1737.6,342.7z"/>
		<path class="st0" d="M1979.6,342.7c-44.9,0-117,0-161.9,0c-7.4-107.4-5.2-197.3,15.8-304.2c39.3-4.6,143.4-5.2,143.4-5.2
			c-0.1,14.8-0.1,10.8-0.2,30.9c-33.2,4.5-77.9,6.1-114.1,8.5c-6.9,44.3-8.7,56.8-15.5,89.3c32.7,1.4,76.2,2,109.2,2.3
			c-2.9,13-5.3,20.4-2.7,33c-32.9-0.4-76.5-1.2-109.1-3.2c0,71.3,7.5,84.6,7.5,114.4c38.7-0.1,85.2-0.1,123.9-0.2
			C1977.2,322.1,1979,329.1,1979.6,342.7z"/>
	</g>
</g>
</svg>
